<?xml version="1.0" encoding="utf-8"?>
<!-- Generator: Adobe Illustrator 22.1.0, SVG Export Plug-In . SVG Version: 6.00 Build 0)  -->
<svg version="1.1" id="Layer_1" xmlns="http://www.w3.org/2000/svg" xmlns:xlink="http://www.w3.org/1999/xlink" x="0px" y="0px"
	 viewBox="0 0 2000 536" style="enable-background:new 0 0 2000 536;" xml:space="preserve">
<style type="text/css">
	.st0{fill:#FC6868;}
	.st1{fill:#FFFFFF;}
	.st2{fill:#F9F9F9;}
</style>
<g>
	<g>
		<polygon class="st0" points="1589.4,97.9 1564.7,97.9 1612.3,145.5 1564.7,193.2 1589.4,193.2 1637.1,145.5 		"/>
	</g>
	<path class="st1" d="M205.8,503.4c-78.8,0-142.9-64.1-142.9-142.9S127,217.5,205.8,217.5s142.9,64.1,142.9,142.9
		S284.6,503.4,205.8,503.4z M205.8,235c-69.2,0-125.4,56.3-125.4,125.4s56.3,125.4,125.4,125.4s125.4-56.3,125.4-125.4
		S275,235,205.8,235z"/>
	<rect x="331.3" y="87" class="st1" width="17.5" height="407.6"/>
	<rect x="751.3" y="87" class="st1" width="17.5" height="407.6"/>
	<rect x="766.1" y="230.1" class="st2" width="98.9" height="17.5"/>
	<path class="st1" d="M538.4,503.4c-78.8,0-142.9-64.1-142.9-142.9s64.1-142.9,142.9-142.9s142.9,64.1,142.9,142.9
		S617.2,503.4,538.4,503.4z M538.4,235c-69.2,0-125.4,56.3-125.4,125.4s56.3,125.4,125.4,125.4s125.4-56.3,125.4-125.4
		S607.5,235,538.4,235z"/>
	<rect x="663.8" y="230.1" class="st1" width="17.5" height="264.5"/>
	<path class="st1" d="M1024.1,503.4c-78.8,0-142.9-64.1-142.9-142.9s64.1-142.9,142.9-142.9S1167,281.6,1167,360.4
		S1102.9,503.4,1024.1,503.4z M1024.1,235c-69.2,0-125.4,56.3-125.4,125.4s56.3,125.4,125.4,125.4s125.4-56.3,125.4-125.4
		S1093.2,235,1024.1,235z"/>
	<rect x="1155.3" y="230.1" class="st1" width="17.5" height="264.5"/>
	<path class="st1" d="M1794.2,503.4c-78.8,0-142.9-64.1-142.9-142.9s64.1-142.9,142.9-142.9c78.8,0,142.9,64.1,142.9,142.9
		S1873,503.4,1794.2,503.4z M1794.2,235c-69.2,0-125.4,56.3-125.4,125.4s56.3,125.4,125.4,125.4c69.2,0,125.4-56.3,125.4-125.4
		S1863.3,235,1794.2,235z"/>
	<rect x="1919.6" y="230.1" class="st1" width="17.5" height="264.5"/>
	<rect x="1569.6" y="230.1" class="st1" width="17.5" height="264.5"/>
	<g>
		<polygon class="st1" points="1510.6,229.9 1490.6,229.9 1370.2,463.1 1249.9,229.9 1229.9,229.9 1370.2,501.8 		"/>
	</g>
</g>
<g>
	<path class="st1" d="M844.8,1015.4c-78.8,0-142.9-64.1-142.9-142.9S766,729.5,844.8,729.5s142.9,64.1,142.9,142.9
		S923.6,1015.4,844.8,1015.4z M844.8,747c-69.2,0-125.4,56.3-125.4,125.4s56.3,125.4,125.4,125.4s125.4-56.3,125.4-125.4
		S913.9,747,844.8,747z"/>
	<rect x="970.2" y="593.2" class="st1" width="17.5" height="413.5"/>
	<g>
		<polygon class="st0" points="1157.3,623.4 1132.6,623.4 1180.2,671.1 1132.6,718.7 1157.3,718.7 1205,671.1 		"/>
	</g>
	<g>
		<polygon class="st1" points="1298.2,741.6 1278.2,741.6 1157.8,974.8 1037.5,741.6 1017.5,741.6 1157.8,1013.5 		"/>
	</g>
</g>
</svg>
