<svg xmlns="http://www.w3.org/2000/svg" width="60.304" height="86.148" viewBox="0 0 60.304 86.148">
  <path id="Icon_material-edit-location" data-name="Icon material-edit-location" d="M37.652,3A30.185,30.185,0,0,0,7.5,33.152c0,22.614,30.152,56,30.152,56S67.8,55.766,67.8,33.152A30.185,30.185,0,0,0,37.652,3Zm-6.72,43.074h-6.2v-6.2L39.16,25.485l6.16,6.16ZM50.1,26.906l-3.015,3.015-6.2-6.2L43.9,20.7a1.638,1.638,0,0,1,2.326,0L50.1,24.58a1.638,1.638,0,0,1,0,2.326Z" transform="translate(-7.5 -3)" fill="#85b0cb"/>
</svg>
