<svg xmlns="http://www.w3.org/2000/svg" width="42" height="42" viewBox="0 0 42 42">
  <g id="Grupo_313" data-name="Grupo 313" transform="translate(-451 -599)">
    <g id="Grupo_311" data-name="Grupo 311">
      <g id="Grupo_205" data-name="Grupo 205" transform="translate(451 599)">
        <g id="Rectángulo_68" data-name="Rectángulo 68" fill="none" stroke="#85b0cb" stroke-width="2">
          <rect width="42" height="42" rx="4" stroke="none"/>
          <rect x="1" y="1" width="40" height="40" rx="3" fill="none"/>
        </g>
      </g>
    </g>
    <g id="Icon_ionic-ios-list" data-name="Icon ionic-ios-list" transform="translate(453.829 601.969)">
      <path id="Trazado_119" data-name="Trazado 119" d="M8.317,17.94a1.908,1.908,0,1,1-1.908-1.908A1.908,1.908,0,0,1,8.317,17.94Z" transform="translate(0 -0.268)" fill="#85b0cb"/>
      <path id="Trazado_120" data-name="Trazado 120" d="M8.317,9.221A1.908,1.908,0,1,1,6.408,7.313,1.908,1.908,0,0,1,8.317,9.221Z" transform="translate(0 0)" fill="#85b0cb"/>
      <path id="Trazado_121" data-name="Trazado 121" d="M8.317,26.658A1.908,1.908,0,1,1,6.408,24.75a1.908,1.908,0,0,1,1.908,1.908Z" transform="translate(0 -0.535)" fill="#85b0cb"/>
      <path id="Trazado_122" data-name="Trazado 122" d="M29.821,16.875H13.43a1.09,1.09,0,1,0,0,2.181H29.821a1.09,1.09,0,1,0,0-2.181Z" transform="translate(-0.241 -0.294)" fill="#85b0cb"/>
      <path id="Trazado_123" data-name="Trazado 123" d="M29.821,25.594H13.43a1.09,1.09,0,0,0,0,2.181H29.821a1.09,1.09,0,1,0,0-2.181Z" transform="translate(-0.241 -0.561)" fill="#85b0cb"/>
      <path id="Trazado_124" data-name="Trazado 124" d="M13.43,10.337H29.821a1.09,1.09,0,1,0,0-2.181H13.43a1.09,1.09,0,0,0,0,2.181Z" transform="translate(-0.241 -0.026)" fill="#85b0cb"/>
    </g>
  </g>
</svg>
