<svg xmlns="http://www.w3.org/2000/svg" width="90.079" height="69.488" viewBox="0 0 90.079 69.488">
  <g id="Grupo_289" data-name="Grupo 289" transform="translate(-1129.5 -505)">
    <g id="Grupo_212" data-name="Grupo 212" transform="translate(1129.5 505)">
      <g id="Warning" transform="translate(0 0)">
        <path id="Trazado_50" data-name="Trazado 50" d="M81.418,64.876,46.2,7.8a5.894,5.894,0,0,0-10.037,0L.939,64.889A6.228,6.228,0,0,0,0,68.183a6.318,6.318,0,0,0,6.306,6.306H76.052a6.306,6.306,0,0,0,5.366-9.613Zm-5.366,7.039H6.306a3.732,3.732,0,0,1-3.732-3.732,3.783,3.783,0,0,1,.553-1.956L38.348,9.156a3.32,3.32,0,0,1,5.662,0L79.231,66.227a3.783,3.783,0,0,1,.553,1.956,3.732,3.732,0,0,1-3.732,3.732Z" transform="translate(0 -5.001)" fill="red"/>
        <path id="Trazado_51" data-name="Trazado 51" d="M40.59,11.9a1.287,1.287,0,0,0-2.188,0L6.038,64.283a1.3,1.3,0,0,0,1.132,1.943H71.822a1.3,1.3,0,0,0,1.132-1.943ZM9.474,63.678,39.5,15.023,69.518,63.678Z" transform="translate(1.683 -3.198)" fill="red"/>
        <path id="Trazado_52" data-name="Trazado 52" d="M33.582,30.287v1.364a10.462,10.462,0,0,0-5.019,2.085h0l-1.789-1.789a1.292,1.292,0,0,0-1.827,1.827l1.789,1.789h0a10.462,10.462,0,0,0-2.085,5.019H23.287a1.287,1.287,0,1,0,0,2.574h1.364a10.462,10.462,0,0,0,2.085,5.019h0l-1.789,1.789a1.292,1.292,0,1,0,1.827,1.827L28.563,50h0a10.462,10.462,0,0,0,5.019,2.085V53.45a1.287,1.287,0,1,0,2.574,0V52.086A10.462,10.462,0,0,0,41.174,50h0l1.789,1.789a1.292,1.292,0,1,0,1.827-1.827L43,48.174h0a10.462,10.462,0,0,0,2.085-5.019H46.45a1.287,1.287,0,1,0,0-2.574H45.086A10.462,10.462,0,0,0,43,35.563h0l1.789-1.789a1.292,1.292,0,1,0-1.827-1.827l-1.789,1.789h0a10.462,10.462,0,0,0-5.019-2.085V30.287a1.287,1.287,0,1,0-2.574,0Zm6.743,6.125a7.541,7.541,0,0,1,2.149,4.169h0a1.287,1.287,0,1,0,0,2.574h0a7.721,7.721,0,0,1-6.318,6.318h0a1.287,1.287,0,1,0-2.574,0h0a7.721,7.721,0,0,1-6.318-6.318h0a1.287,1.287,0,1,0,0-2.574h0a7.721,7.721,0,0,1,6.318-6.318h0a1.287,1.287,0,1,0,2.574,0h0a7.541,7.541,0,0,1,4.169,2.149Z" transform="translate(42.342 -25.141)" fill="red"/>
        <circle id="Elipse_9" data-name="Elipse 9" cx="2.149" cy="2.149" r="2.149" transform="translate(71.768 13.115)" fill="red"/>
        <ellipse id="Elipse_10" data-name="Elipse 10" cx="0.716" cy="1.432" rx="0.716" ry="1.432" transform="translate(80.363 14.547)" fill="red"/>
        <circle id="Elipse_11" data-name="Elipse 11" cx="1.432" cy="1.432" r="1.432" transform="translate(76.066 17.412)" fill="red"/>
      </g>
      <line id="Línea_74" data-name="Línea 74" y2="21.876" transform="translate(41.822 25.093)" fill="none" stroke="#fff" stroke-linecap="round" stroke-width="3"/>
      <line id="Línea_75" data-name="Línea 75" transform="translate(41.822 53.404)" fill="none" stroke="#fff" stroke-linecap="round" stroke-width="3"/>
    </g>
  </g>
</svg>
