<svg xmlns="http://www.w3.org/2000/svg" width="69.902" height="55.143" viewBox="0 0 69.902 55.143">
  <g id="dashboard-report--icon" transform="translate(-1600 -578)">
    <g id="Grupo_260" data-name="Grupo 260" transform="translate(1600 578)">
      <path id="Trazado_112" data-name="Trazado 112" d="M68.81,61.749H66.626V20.994A1.047,1.047,0,0,0,65.533,20H56.8a1.047,1.047,0,0,0-1.092.994V61.749H49.15V48.827a1.047,1.047,0,0,0-1.092-.994H39.32a1.047,1.047,0,0,0-1.092.994V61.749H31.674V34.91a1.047,1.047,0,0,0-1.092-.994H21.844a1.047,1.047,0,0,0-1.092.994V61.749H14.2V40.875a1.047,1.047,0,0,0-1.092-.994H4.369a1.047,1.047,0,0,0-1.092.994V61.749H1.092a1,1,0,1,0,0,1.988H68.81a1,1,0,1,0,0-1.988Zm-63.349,0V41.869h6.553v19.88Zm17.476,0V35.9H29.49V61.749Zm17.476,0V49.821h6.553V61.749Zm17.476,0V21.988h6.553V61.749Z" transform="translate(0 -8.594)" fill="#85b0cb"/>
      <g id="Grupo_110" data-name="Grupo 110" transform="translate(23.968 0)">
        <path id="Trazado_112-2" data-name="Trazado 112" d="M19.825,11.544h1.707a8.188,8.188,0,0,0,1.814,4.387l-.775.775a1.649,1.649,0,1,0,1.163,1.171l.775-.775a8.188,8.188,0,0,0,4.387,1.864v1.649a.825.825,0,0,0,1.649,0V18.965a8.188,8.188,0,0,0,4.395-1.814l.775.775a1.638,1.638,0,1,0,1.163-1.171L36.1,15.98a8.188,8.188,0,0,0,1.814-4.436h1.7a.825.825,0,1,0,0-1.649h-1.7A8.188,8.188,0,0,0,36.1,5.5l.775-.775a1.847,1.847,0,0,0,.421.058,1.649,1.649,0,1,0-1.583-1.22l-.775.767a8.246,8.246,0,0,0-4.395-1.806V.825a.825.825,0,0,0-1.649,0v1.7A8.246,8.246,0,0,0,24.5,4.337l-.775-.767a1.649,1.649,0,1,0-1.583,1.22,1.847,1.847,0,0,0,.421-.058l.775.775a8.188,8.188,0,0,0-1.814,4.387h-1.7a.825.825,0,0,0,0,1.649Zm5.236-4.329a.825.825,0,1,0,1.171-1.163l-.544-.544a6.6,6.6,0,0,1,4.032-1.385h0a6.6,6.6,0,0,1,4.04,1.394l-.544.544a.825.825,0,1,0,1.171,1.163l.544-.536a6.6,6.6,0,0,1,1.385,4.032h0a6.654,6.654,0,0,1-1.385,4.032l-.544-.544a.825.825,0,1,0-1.171,1.163l.544.544a6.531,6.531,0,0,1-4.04,1.4h0a6.531,6.531,0,0,1-4.032-1.385l.544-.544a.825.825,0,1,0-1.171-1.163l-.544.544a6.654,6.654,0,0,1-1.394-4.049h0a6.6,6.6,0,0,1,1.385-4.032Z" transform="translate(-19 0)" fill="#85b0cb"/>
        <path id="Trazado_113" data-name="Trazado 113" d="M28.109,13.6h0a1.649,1.649,0,1,0,0-3.3h0a1.649,1.649,0,0,0,0,3.3Z" transform="translate(-19.43 -2.989)" fill="#85b0cb"/>
        <ellipse id="Elipse_30" data-name="Elipse 30" cx="1.237" cy="1.237" rx="1.237" ry="1.237" transform="translate(11.132 9.119)" fill="#85b0cb"/>
        <path id="Trazado_114" data-name="Trazado 114" d="M32.41,17.7a.825.825,0,1,0-.585.244A.825.825,0,0,0,32.41,17.7Z" transform="translate(-21.105 -5.323)" fill="#85b0cb"/>
      </g>
    </g>
  </g>
</svg>
