<svg xmlns="http://www.w3.org/2000/svg" width="97.669" height="67.501" viewBox="0 0 97.669 67.501">
  <g id="Grupo_364" data-name="Grupo 364" transform="translate(-969.998 -479)">
    <path id="Trazado_99" data-name="Trazado 99" d="M48.624,10.5,24,28.089,48.624,45.678Z" transform="translate(1018.043 492.786)" fill="none" stroke="#85b0cb" stroke-linecap="round" stroke-linejoin="round" stroke-width="2"/>
    <path id="Sustracci贸n_3" data-name="Sustracci贸n 3" d="M14599.009-7993.5h-38.7a7.044,7.044,0,0,1-7.034-7.038v-23.354c.562.054,1.118.082,1.654.082a13.71,13.71,0,0,0,1.5-.079l1.826,3.724,5.4-1.976-.989-3.8a14.106,14.106,0,0,0,3.573-2.812l3.57,1.595,2.889-4.938-3.115-2.207a15.158,15.158,0,0,0,.912-4.483l3.8-1.063-.511-2.9h25.225a7.044,7.044,0,0,1,7.034,7.038v35.175A7.044,7.044,0,0,1,14599.009-7993.5Z" transform="translate(-13564 8539)" fill="none" stroke="#85b0cb" stroke-linecap="round" stroke-linejoin="round" stroke-width="2"/>
    <path id="Uni贸n_5" data-name="Uni贸n 5" d="M14560.311-7993.5a7.039,7.039,0,0,1-7.034-7.038v-23.354c-.4-.038-.789-.088-1.177-.15l-1.749,3.651-5.4-1.976,1.063-4.183a15.567,15.567,0,0,1-3.111-2.812l-3.879,1.749-2.889-4.941,3.647-2.584a14.448,14.448,0,0,1-.608-4.028l-4.179-1.14.989-5.623,4.483.3a14.422,14.422,0,0,1,2.126-3.574l-2.43-3.57,4.409-3.725,3.116,3.039a15.489,15.489,0,0,1,3.951-1.44l.382-4.106h5.772l.382,4.106a15.7,15.7,0,0,1,4.1,1.518l2.815-2.735,4.406,3.724-2.28,3.266a18.455,18.455,0,0,1,2.28,3.952l3.8-.3.479,2.724h25.225a7.037,7.037,0,0,1,7.034,7.038v35.175a7.037,7.037,0,0,1-7.034,7.038Z" transform="translate(-13564 8539)" fill="none" stroke="#85b0cb" stroke-linecap="round" stroke-linejoin="round" stroke-width="2"/>
    <g id="Elipse_69" data-name="Elipse 69" transform="translate(981 489)" fill="#00cc4f" stroke="#85b0cb" stroke-width="2">
      <circle cx="10" cy="10" r="10" stroke="none"/>
      <circle cx="10" cy="10" r="9" fill="none"/>
    </g>
  </g>
</svg>
