<svg xmlns="http://www.w3.org/2000/svg" width="17.367" height="15.196" viewBox="0 0 17.367 15.196">
  <path id="Icon_awesome-eraser" data-name="Icon awesome-eraser" d="M16.89,10.457a1.628,1.628,0,0,0,0-2.3L11.463,2.727a1.628,1.628,0,0,0-2.3,0L.477,11.41a1.628,1.628,0,0,0,0,2.3l3.256,3.256a1.628,1.628,0,0,0,1.151.477H16.96a.407.407,0,0,0,.407-.407V15.682a.407.407,0,0,0-.407-.407H12.072l4.819-4.819ZM6.625,8.332l4.66,4.66L9,15.275H5.109L2.4,12.562,6.625,8.332Z" transform="translate(0 -2.25)"/>
</svg>
