<svg id="noun_Medical_Mask_3434808" data-name="noun_Medical Mask_3434808" xmlns="http://www.w3.org/2000/svg" width="43.135" height="28.927" viewBox="0 0 43.135 28.927">
  <path id="Trazado_55" data-name="Trazado 55" d="M42.3,9.027A2.134,2.134,0,0,0,40.438,7.9c-1.961.074-3.9,3.9-4.632,5.518a27.516,27.516,0,0,1-4.375.319.674.674,0,1,0,0,1.348h0a30.954,30.954,0,0,0,3.982-.245,78.323,78.323,0,0,1-3.177,11.431,19.4,19.4,0,0,1-3.293,5.455c-2.983,1.815-6.634,3.755-7.384,3.755s-4.4-1.945-7.389-3.763a19.191,19.191,0,0,1-3.292-5.455A78.406,78.406,0,0,1,7.7,14.832a34.047,34.047,0,0,0,6.077.2,16.836,16.836,0,0,0,7.781-2.478,16.836,16.836,0,0,0,7.781,2.482.674.674,0,0,0,.063-1.348,15.664,15.664,0,0,1-7.456-2.492.676.676,0,0,0-.781,0,15.578,15.578,0,0,1-7.456,2.492,30.768,30.768,0,0,1-6.4-.269C6.579,11.792,4.642,7.97,2.681,7.9A2.156,2.156,0,0,0,.82,9.027C-.2,10.635-.455,13.943,1.081,16.9c1.787,3.439,7.026,7.665,8,8.431.185.527.373,1.025.561,1.464a19.569,19.569,0,0,0,3.637,5.935.64.64,0,0,0,.12.09c1.541.942,6.677,4,8.165,4s6.624-3.066,8.163-4.006a.64.64,0,0,0,.12-.09A19.569,19.569,0,0,0,33.48,26.8c.189-.439.376-.937.561-1.464.971-.766,6.21-4.992,8-8.431C43.574,13.943,43.319,10.635,42.3,9.027ZM2.277,16.281c-1.241-2.389-1.132-5.251-.319-6.533.15-.236.385-.5.672-.5.844.031,2.515,2.585,3.566,4.975.116.577,1,4.909,2.122,8.733C6.407,21.306,3.455,18.549,2.277,16.281Zm38.564,0c-1.177,2.267-4.132,5.024-6.04,6.67,1.119-3.827,2.008-8.164,2.123-8.735,1.049-2.389,2.719-4.941,3.565-4.973.27,0,.522.27.672.5C41.973,11.03,42.082,13.892,40.842,16.281Z" transform="translate(0.008 -7.9)"/>
  <path id="Trazado_56" data-name="Trazado 56" d="M33.652,20.417a.669.669,0,0,0-.918-.252c-.058.032-5.883,3.324-9.972,3.324S12.849,20.2,12.79,20.166a.674.674,0,0,0-.667,1.168c.251.143,6.2,3.5,10.638,3.5s10.387-3.355,10.638-3.5A.674.674,0,0,0,33.652,20.417Z" transform="translate(-1.194 -9.138)"/>
  <path id="Trazado_57" data-name="Trazado 57" d="M32.983,25.625a.673.673,0,0,0-.93-.208,18.352,18.352,0,0,1-8.439,2.605,12.666,12.666,0,0,1-2.569-.279.674.674,0,1,0-.27,1.319,14,14,0,0,0,2.839.31,19.492,19.492,0,0,0,9.163-2.816A.674.674,0,0,0,32.983,25.625Z" transform="translate(-2.047 -9.67)"/>
  <path id="Trazado_58" data-name="Trazado 58" d="M18.077,28.484a.674.674,0,0,0,.218-1.312,20.348,20.348,0,0,1-3.807-1.756.673.673,0,0,0-.719,1.138,21.2,21.2,0,0,0,4.088,1.891.7.7,0,0,0,.219.039Z" transform="translate(-1.36 -9.67)"/>
  <path id="Trazado_59" data-name="Trazado 59" d="M15.709,31.89a17.166,17.166,0,0,0,7.413,1.952,17.167,17.167,0,0,0,7.413-1.952.673.673,0,1,0-.651-1.179,16.017,16.017,0,0,1-6.762,1.783,16.089,16.089,0,0,1-6.762-1.783.673.673,0,0,0-.651,1.179Z" transform="translate(-1.554 -10.21)"/>
</svg>
