<svg xmlns="http://www.w3.org/2000/svg" width="14.982" height="14.982" viewBox="0 0 14.982 14.982">
  <path id="Icon_awesome-save" data-name="Icon awesome-save" d="M14.512,5.525,11.707,2.72a1.605,1.605,0,0,0-1.135-.47H1.605A1.605,1.605,0,0,0,0,3.855V15.627a1.605,1.605,0,0,0,1.605,1.605H13.377a1.605,1.605,0,0,0,1.605-1.605V6.66a1.605,1.605,0,0,0-.47-1.135ZM7.491,15.092a2.14,2.14,0,1,1,2.14-2.14A2.14,2.14,0,0,1,7.491,15.092ZM10.7,4.908V8.27a.4.4,0,0,1-.4.4H2.542a.4.4,0,0,1-.4-.4V4.792a.4.4,0,0,1,.4-.4h7.642a.4.4,0,0,1,.284.118l.116.116A.4.4,0,0,1,10.7,4.908Z" transform="translate(0 -2.25)"/>
</svg>
