<svg xmlns="http://www.w3.org/2000/svg" width="40.584" height="40.584" viewBox="0 0 40.584 40.584">
  <g id="measurement-calibration-icon" transform="translate(-1.25 -1.25)">
    <g id="Grupo_54" data-name="Grupo 54" transform="translate(1.25 1.25)">
      <path id="Trazado_64" data-name="Trazado 64" d="M1.729,41.834H41.355a.479.479,0,0,0,.479-.479V30.591a.479.479,0,0,0-.479-.479H12.972V1.73a.479.479,0,0,0-.479-.479H1.729a.479.479,0,0,0-.479.479V41.355A.479.479,0,0,0,1.729,41.834ZM12.013,2.209V30.591a.479.479,0,0,0,.479.479H40.875v9.8H36.528V36.558H35.57v4.317H32.9V36.558h-.959v4.317H29.274V36.558h-.959v4.317H25.648V36.558H24.69v4.317H22.021V36.558h-.959v4.317H18.394V36.558h-.959v4.317H14.768V36.558H13.81v4.317H2.209V30.485H6.526v-.959H2.209V26.858H6.526V25.9H2.209V23.231H6.526v-.959H2.209V19.6H6.526v-.959H2.209V15.978H6.526v-.959H2.209V12.351H6.526v-.959H2.209V8.725H6.526V7.766H2.209V2.209Z" transform="translate(-1.25 -1.25)" fill="#545660"/>
      <path id="Trazado_65" data-name="Trazado 65" d="M4.835,53.692A3.568,3.568,0,1,0,8.4,50.124,3.573,3.573,0,0,0,4.835,53.692ZM8.4,51.082a2.61,2.61,0,1,1-2.61,2.61A2.613,2.613,0,0,1,8.4,51.082Z" transform="translate(-2.544 -18.888)" fill="#545660"/>
    </g>
  </g>
</svg>
