<svg xmlns="http://www.w3.org/2000/svg" xmlns:xlink="http://www.w3.org/1999/xlink" width="32.055" height="32.066" viewBox="0 0 32.055 32.066">
  <defs>
    <clipPath id="clip-path">
      <rect id="Rectángulo_78" data-name="Rectángulo 78" width="32.055" height="32.066" fill="red" stroke="red" stroke-width="1"/>
    </clipPath>
  </defs>
  <g id="contamination-exposure-icon" transform="translate(-62.016 -437)">
    <g id="noun_Water_Inspection_1188352" data-name="noun_Water Inspection_1188352" transform="translate(62.016 437)">
      <g id="Grupo_62" data-name="Grupo 62" transform="translate(0 0)" clip-path="url(#clip-path)">
        <path id="Trazado_86" data-name="Trazado 86" d="M-19.95-34.793A10.468,10.468,0,0,0-27.4-37.878a10.461,10.461,0,0,0-7.449,3.085,10.528,10.528,0,0,0,0,14.887A10.506,10.506,0,0,0-27.4-16.82a10.461,10.461,0,0,0,7.449-3.085A10.548,10.548,0,0,0-19.95-34.793Zm-.782,14.1A9.332,9.332,0,0,1-27.4-17.922a9.351,9.351,0,0,1-6.667-2.766,9.451,9.451,0,0,1,0-13.333A9.37,9.37,0,0,1-27.4-36.787a9.37,9.37,0,0,1,6.667,2.766A9.431,9.431,0,0,1-20.733-20.688Z" transform="translate(40.138 40.104)" fill="red"/>
        <path id="Trazado_88" data-name="Trazado 88" d="M-12.5-15.368l-8.4-8.4a12.611,12.611,0,0,0,2.424-7.471,12.652,12.652,0,0,0-3.736-9.014,12.679,12.679,0,0,0-9.014-3.736,12.633,12.633,0,0,0-9.014,3.736,12.763,12.763,0,0,0,0,18.027,12.679,12.679,0,0,0,9.014,3.736A12.611,12.611,0,0,0-23.75-20.91l8.4,8.4a2,2,0,0,0,1.421.6,2.009,2.009,0,0,0,1.433-.6,2.055,2.055,0,0,0,.6-1.432A2.05,2.05,0,0,0-12.5-15.368ZM-39.463-23a11.551,11.551,0,0,1-3.4-8.231,11.578,11.578,0,0,1,3.4-8.231,11.562,11.562,0,0,1,8.231-3.416A11.543,11.543,0,0,1-23-39.467a11.562,11.562,0,0,1,3.416,8.231A11.543,11.543,0,0,1-23-23a11.562,11.562,0,0,1-8.231,3.416A11.562,11.562,0,0,1-39.463-23ZM-13.282-13.3a.908.908,0,0,1-.65.264.956.956,0,0,1-.65-.264l-7.019-7.03h0l.6-1.994,7.735,7.735a.908.908,0,0,1,.264.65A.875.875,0,0,1-13.282-13.3Z" transform="translate(43.97 43.985)" fill="red"/>
      </g>
    </g>
    <g id="Grupo_64" data-name="Grupo 64" transform="translate(69.401 444.143)">
      <path id="Trazado_89" data-name="Trazado 89" d="M19.412,5.771h.853a4.093,4.093,0,0,0,.907,2.193l-.387.387a.824.824,0,1,0,.581.585l.387-.387a4.093,4.093,0,0,0,2.193.932v.824a.412.412,0,1,0,.824,0V9.481a4.093,4.093,0,0,0,2.2-.907l.387.387a.819.819,0,1,0,.581-.585l-.387-.387a4.093,4.093,0,0,0,.907-2.218h.849a.412.412,0,0,0,0-.824h-.849a4.093,4.093,0,0,0-.907-2.2l.387-.387a.923.923,0,0,0,.21.029.824.824,0,1,0-.791-.61l-.387.383a4.122,4.122,0,0,0-2.2-.9V.412a.412.412,0,1,0-.824,0v.849a4.122,4.122,0,0,0-2.2.907l-.387-.383a.824.824,0,1,0-.791.61.923.923,0,0,0,.21-.029l.387.387a4.093,4.093,0,0,0-.907,2.193h-.849a.412.412,0,0,0,0,.824ZM22.03,3.607a.412.412,0,0,0,.585-.581l-.272-.272a3.3,3.3,0,0,1,2.016-.693h0a3.3,3.3,0,0,1,2.02.7l-.272.272a.412.412,0,1,0,.585.581l.272-.268a3.3,3.3,0,0,1,.693,2.016h0a3.327,3.327,0,0,1-.693,2.016L26.692,7.1a.412.412,0,1,0-.585.581l.272.272a3.265,3.265,0,0,1-2.02.7h0a3.265,3.265,0,0,1-2.016-.693l.272-.272a.412.412,0,1,0-.585-.581l-.272.272a3.327,3.327,0,0,1-.7-2.024h0a3.3,3.3,0,0,1,.693-2.016Z" transform="translate(-19 0)" fill="red"/>
      <path id="Trazado_90" data-name="Trazado 90" d="M27.284,11.949h0a.824.824,0,1,0,0-1.649h0a.824.824,0,0,0,0,1.649Z" transform="translate(-23.128 -6.802)" fill="red"/>
      <circle id="Elipse_20" data-name="Elipse 20" cx="0.618" cy="0.618" r="0.618" transform="translate(5.705 3.871)" fill="red"/>
      <path id="Trazado_91" data-name="Trazado 91" d="M31.7,17a.412.412,0,1,0-.293.122A.412.412,0,0,0,31.7,17Z" transform="translate(-26.053 -10.724)" fill="red"/>
    </g>
  </g>
</svg>
