<svg id="Temperature" xmlns="http://www.w3.org/2000/svg" width="36.213" height="34.592" viewBox="0 0 36.213 34.592">
  <path id="Trazado_30" data-name="Trazado 30" d="M30.729,24.068V3.783a3.783,3.783,0,1,0-7.567,0V24.068A5.886,5.886,0,0,0,21,28.646a5.945,5.945,0,1,0,11.891,0,5.886,5.886,0,0,0-2.162-4.578Zm-3.783,9.443a4.861,4.861,0,0,1-2.919-8.751.54.54,0,0,0,.216-.438V3.783a2.7,2.7,0,1,1,5.4,0V24.322a.54.54,0,0,0,.216.432,4.864,4.864,0,0,1-2.919,8.756Z" transform="translate(-9.649 0)"/>
  <path id="Trazado_31" data-name="Trazado 31" d="M30.863,32.734V16.621a1.621,1.621,0,0,0-3.243,0V32.734a3.243,3.243,0,0,0,.93,5.978,3.286,3.286,0,0,0,.692.07,3.243,3.243,0,0,0,1.621-6.048ZM30.6,37.22a2.162,2.162,0,1,1-2.227-3.659.541.541,0,0,0,.324-.5V16.621a.54.54,0,0,1,1.081,0V33.063a.54.54,0,0,0,.324.5,2.162,2.162,0,0,1,.5,3.659Z" transform="translate(-11.946 -6.893)"/>
  <path id="Trazado_32" data-name="Trazado 32" d="M54.269,19.864H53.7a4.394,4.394,0,0,0-.876-2.108h0l.751-.751a.543.543,0,0,0-.768-.768l-.751.751h0a4.394,4.394,0,0,0-2.108-.876V15.54a.54.54,0,1,0-1.081,0v.573a4.394,4.394,0,0,0-2.108.876h0l-.751-.751a.543.543,0,1,0-.768.768l.751.751h0a4.394,4.394,0,0,0-.876,2.108h-.573a.54.54,0,1,0,0,1.081h.573a4.394,4.394,0,0,0,.876,2.108h0l-.751.751a.543.543,0,1,0,.768.768l.751-.751h0a4.394,4.394,0,0,0,2.108.876v.573a.54.54,0,1,0,1.081,0V24.7a4.394,4.394,0,0,0,2.108-.876h0l.751.751a.543.543,0,1,0,.768-.768l-.751-.751h0a4.394,4.394,0,0,0,.876-2.108h.573a.54.54,0,0,0,0-1.081ZM47.113,22.7a3.167,3.167,0,0,1-.9-1.751h0a.54.54,0,1,0,0-1.081h0a3.243,3.243,0,0,1,2.654-2.654h0a.54.54,0,1,0,1.081,0h0A3.243,3.243,0,0,1,52.6,19.864h0a.54.54,0,1,0,0,1.081h0A3.243,3.243,0,0,1,49.945,23.6h0a.54.54,0,1,0-1.081,0h0A3.167,3.167,0,0,1,47.113,22.7Z" transform="translate(-18.597 -4.731)"/>
  <circle id="Elipse_2" data-name="Elipse 2" cx="0.602" cy="0.602" r="0.602" transform="translate(28.767 14.181)"/>
  <ellipse id="Elipse_3" data-name="Elipse 3" cx="0.602" cy="0.301" rx="0.602" ry="0.301" transform="translate(31.775 14.783)"/>
  <circle id="Elipse_4" data-name="Elipse 4" cx="0.602" cy="0.602" r="0.602" transform="translate(29.97 15.986)"/>
  <path id="Trazado_33" data-name="Trazado 33" d="M13.967,27.2a3.243,3.243,0,0,0,.54-1.335h.6a.54.54,0,0,0,0-1.081h-.589a3.243,3.243,0,0,0-.54-1.335l.416-.416a.543.543,0,0,0-.768-.768l-.416.416a3.243,3.243,0,0,0-1.335-.54v-.6a.54.54,0,0,0-1.081,0v.589a3.243,3.243,0,0,0-1.335.541l-.416-.416a.543.543,0,1,0-.768.768l.416.416a3.243,3.243,0,0,0-.54,1.335H7.54a.54.54,0,1,0,0,1.081H8.13a3.243,3.243,0,0,0,.54,1.335l-.416.416a.543.543,0,1,0,.768.768l.416-.416a3.243,3.243,0,0,0,1.335.541v.611a.54.54,0,1,0,1.081,0v-.589a3.243,3.243,0,0,0,1.335-.541l.416.416a.543.543,0,1,0,.768-.768Zm-2.643-.254a.54.54,0,0,0-.54.47,2.162,2.162,0,0,1-1.567-1.567.54.54,0,0,0,0-1.049,2.162,2.162,0,0,1,1.567-1.567.54.54,0,0,0,1.049,0A2.162,2.162,0,0,1,13.4,24.8a.54.54,0,0,0,0,1.049,2.162,2.162,0,0,1-1.567,1.567A.54.54,0,0,0,11.324,26.945Z" transform="translate(-6.46 -20.46)"/>
  <path id="Trazado_34" data-name="Trazado 34" d="M7.026,51.243H6.432a2.746,2.746,0,0,0-.476-1.081l.411-.405a.543.543,0,0,0-.768-.768l-.449.449a2.627,2.627,0,0,0-.827-.3v-.595a.54.54,0,1,0-1.081,0v.595a2.7,2.7,0,0,0-.951.4l-.54-.541a.541.541,0,1,0-.762.768l.54.541a2.621,2.621,0,0,0-.395.94H.54a.54.54,0,1,0,0,1.081h.595a2.627,2.627,0,0,0,.33.827l-.449.454a.539.539,0,0,0,.762.762l.411-.422a2.746,2.746,0,0,0,1.081.476v.605a.54.54,0,1,0,1.081,0v-.595a2.621,2.621,0,0,0,.946-.395l.33.33a.541.541,0,1,0,.768-.762l-.335-.33a2.7,2.7,0,0,0,.373-.951h.595a.54.54,0,1,0,0-1.081ZM5.216,52.459a.54.54,0,0,0-.762.762h0a1.567,1.567,0,0,1-.67.184,1.621,1.621,0,0,1-.827-.232.54.54,0,0,0-.676-.795,1.557,1.557,0,0,1-.119-.595,1.621,1.621,0,0,1,.184-.735.5.5,0,0,0,.195.038.541.541,0,0,0,.5-.74,1.649,1.649,0,0,1,.74-.184,1.557,1.557,0,0,1,.595.119.527.527,0,0,0,.795.676,1.584,1.584,0,0,1,.07,1.524Z" transform="translate(0 -22.056)"/>
</svg>
