<svg xmlns="http://www.w3.org/2000/svg" width="52.962" height="52.994" viewBox="0 0 52.962 52.994">
  <g id="Grupo_365" data-name="Grupo 365" transform="translate(-1276.828 -492.82)">
    <g id="Icon_feather-eye" data-name="Icon feather-eye" transform="translate(1286.479 507.706)">
      <path id="Trazado_110" data-name="Trazado 110" d="M1.5,18.262S7.631,6,18.361,6,35.221,18.262,35.221,18.262,29.09,30.525,18.361,30.525,1.5,18.262,1.5,18.262Z" transform="translate(-1.5 -6)" fill="none" stroke="#85b0cb" stroke-linecap="round" stroke-linejoin="round" stroke-width="2"/>
      <path id="Trazado_111" data-name="Trazado 111" d="M22.7,18.1a4.6,4.6,0,1,1-4.6-4.6A4.6,4.6,0,0,1,22.7,18.1Z" transform="translate(-1.238 -5.836)" fill="none" stroke="#85b0cb" stroke-linecap="round" stroke-linejoin="round" stroke-width="2"/>
    </g>
    <path id="Trazado_177" data-name="Trazado 177" d="M-13257.172,8568.783v-15.93h15.994" transform="translate(14535 -8059)" fill="none" stroke="#7ba2bb" stroke-width="2"/>
    <path id="Trazado_178" data-name="Trazado 178" d="M-13257.172,8568.783v-15.93h15.994" transform="translate(9881.644 13750.992) rotate(90)" fill="none" stroke="#7ba2bb" stroke-width="2"/>
    <path id="Trazado_179" data-name="Trazado 179" d="M-13257.172,8568.783v-15.93h15.994" transform="translate(-11928.383 9097.635) rotate(180)" fill="none" stroke="#7ba2bb" stroke-width="2"/>
    <path id="Trazado_180" data-name="Trazado 180" d="M-13257.172,8568.783v-15.93h15.994" transform="translate(-7275.025 -12712.357) rotate(-90)" fill="none" stroke="#7ba2bb" stroke-width="2"/>
  </g>
</svg>
