<svg id="Grupo_309" data-name="Grupo 309" xmlns="http://www.w3.org/2000/svg" width="38.226" height="29.488" viewBox="0 0 38.226 29.488">
  <g id="Warning" transform="translate(0 0)">
    <path id="Trazado_50" data-name="Trazado 50" d="M34.551,30.41,19.6,6.191a2.5,2.5,0,0,0-4.259,0L.4,30.415a2.643,2.643,0,0,0-.4,1.4,2.681,2.681,0,0,0,2.676,2.676h29.6a2.676,2.676,0,0,0,2.277-4.079ZM32.273,33.4H2.676a1.584,1.584,0,0,1-1.584-1.584,1.605,1.605,0,0,1,.235-.83L16.273,6.764a1.409,1.409,0,0,1,2.4,0L33.622,30.983a1.605,1.605,0,0,1,.235.83A1.584,1.584,0,0,1,32.273,33.4Z" transform="translate(0 -5.001)"/>
    <path id="Trazado_51" data-name="Trazado 51" d="M20.6,11.545a.546.546,0,0,0-.928,0L5.939,33.776a.552.552,0,0,0,.481.825H33.855a.552.552,0,0,0,.481-.825ZM7.4,33.52l12.74-20.647L32.877,33.52Z" transform="translate(-2.663 -7.854)"/>
    <path id="Trazado_52" data-name="Trazado 52" d="M26.915,29.546v.579a4.44,4.44,0,0,0-2.13.885h0l-.759-.759a.548.548,0,0,0-.775.775l.759.759h0a4.44,4.44,0,0,0-.885,2.13h-.579a.546.546,0,1,0,0,1.092h.579a4.44,4.44,0,0,0,.885,2.13h0l-.759.759a.548.548,0,1,0,.775.775l.759-.759h0a4.44,4.44,0,0,0,2.13.885v.579a.546.546,0,1,0,1.092,0V38.8a4.44,4.44,0,0,0,2.13-.885h0l.759.759a.548.548,0,1,0,.775-.775l-.759-.759h0a4.44,4.44,0,0,0,.885-2.13h.579a.546.546,0,1,0,0-1.092H31.8a4.44,4.44,0,0,0-.885-2.13h0l.759-.759a.548.548,0,0,0-.775-.775l-.759.759h0a4.44,4.44,0,0,0-2.13-.885v-.579a.546.546,0,1,0-1.092,0Zm2.861,2.6a3.2,3.2,0,0,1,.912,1.769h0a.546.546,0,1,0,0,1.092h0a3.276,3.276,0,0,1-2.681,2.681h0a.546.546,0,1,0-1.092,0h0a3.276,3.276,0,0,1-2.681-2.681h0a.546.546,0,1,0,0-1.092h0a3.276,3.276,0,0,1,2.681-2.681h0a.546.546,0,1,0,1.092,0h0a3.2,3.2,0,0,1,1.769.912Z" transform="translate(5.304 -27.362)"/>
    <circle id="Elipse_9" data-name="Elipse 9" cx="0.912" cy="0.912" r="0.912" transform="translate(30.455 5.565)"/>
    <ellipse id="Elipse_10" data-name="Elipse 10" cx="0.304" cy="0.608" rx="0.304" ry="0.608" transform="translate(34.103 6.173)"/>
    <circle id="Elipse_11" data-name="Elipse 11" cx="0.608" cy="0.608" r="0.608" transform="translate(32.279 7.389)"/>
  </g>
  <line id="Línea_74" data-name="Línea 74" y2="9.283" transform="translate(17.748 10.649)" fill="none" stroke="#000" stroke-linecap="round" stroke-width="2"/>
  <line id="Línea_75" data-name="Línea 75" transform="translate(17.748 22.662)" fill="none" stroke="#000" stroke-linecap="round" stroke-width="3"/>
</svg>
