<svg xmlns="http://www.w3.org/2000/svg" width="17.33" height="17.124" viewBox="0 0 17.33 17.124">
  <g id="noun_Gear_3579333" transform="translate(-5.329 -5.9)">
    <g id="Grupo_57" data-name="Grupo 57" transform="translate(5.9 6.4)">
      <path id="Trazado_66" data-name="Trazado 66" d="M15.481,22.4l-.751-1.534a6.87,6.87,0,0,1-1.785-.063l-.72,1.5L10,21.492l.438-1.722a6.422,6.422,0,0,1-1.284-1.159l-1.6.72L6.37,17.3l1.5-1.065a5.917,5.917,0,0,1-.25-1.659L5.9,14.1l.407-2.317,1.847.125a5.9,5.9,0,0,1,.877-1.472l-1-1.472L9.845,7.433l1.284,1.252a6.377,6.377,0,0,1,1.628-.595L12.914,6.4h2.38l.157,1.691a6.46,6.46,0,0,1,1.691.626L18.3,7.59l1.816,1.534-.939,1.346a7.606,7.606,0,0,1,.939,1.628l1.566-.125.407,2.317-1.566.438a6.26,6.26,0,0,1-.376,1.847l1.284.908-1.19,2.035-1.472-.658A5.87,5.87,0,0,1,17.3,20.02l.407,1.566Zm-.376-2.223.689,1.44,1.159-.407-.376-1.5.219-.125a6.159,6.159,0,0,0,1.659-1.315l.157-.188,1.378.626.626-1.065-1.19-.877.094-.219a5.329,5.329,0,0,0,.407-2.1V14.2l1.44-.407-.219-1.221-1.472.125-.094-.219a5.964,5.964,0,0,0-1.033-1.847l-.157-.188.877-1.284-.939-.783-1.1,1.065-.219-.125a6.045,6.045,0,0,0-1.941-.72l-.25-.031L14.7,6.995H13.446l-.157,1.6-.25.031a5.913,5.913,0,0,0-1.879.689l-.219.125L9.72,8.247l-.939.783.939,1.378-.157.188a5.753,5.753,0,0,0-1,1.691l-.031.25-1.722-.125-.219,1.221,1.659.47-.031.25v.063A6.148,6.148,0,0,0,8.5,16.263l.063.219-1.378,1,.626,1.065,1.534-.689.157.188a5.358,5.358,0,0,0,1.472,1.315l.188.125-.407,1.628,1.159.407.689-1.44.25.063a5.605,5.605,0,0,0,2.035.063Zm-1.033-1.91a3.851,3.851,0,1,1,3.851-3.851A3.849,3.849,0,0,1,14.072,18.267Zm0-7.076A3.225,3.225,0,1,0,17.3,14.416,3.22,3.22,0,0,0,14.072,11.191Z" transform="translate(-5.9 -6.4)" stroke="#000" stroke-width="1"/>
    </g>
  </g>
</svg>
